<svg width="512" height="512" viewBox="0 0 512 512" fill="none" xmlns="http://www.w3.org/2000/svg">
<path fill-rule="evenodd" clip-rule="evenodd" d="M256.002 45.8478C276.184 45.8479 293.923 49.9122 309.231 58.0411C324.453 66.1698 336.339 77.8478 344.891 93.0781C350.595 103.34 354.376 115.002 356.237 128.06C368.921 125.957 380.906 126.02 392.194 128.283C409.286 131.633 424.062 139.338 436.519 151.393C448.949 163.367 458.281 178.959 464.517 198.164C470.753 217.369 472.377 235.511 469.381 252.589C466.358 269.587 458.929 284.51 447.095 297.355C439.062 305.999 429.078 313.22 417.159 319.042C423.102 330.489 426.749 341.944 428.09 353.411C430.188 370.712 427.429 387.153 419.821 402.733C412.281 418.261 400.351 431.963 384.024 443.833C367.696 455.702 350.949 462.85 333.789 465.276C316.699 467.652 300.217 465.195 284.351 457.902C282.355 456.975 280.385 455.967 278.442 454.879C270.534 450.455 263.06 444.71 256.002 437.653C247.209 446.444 237.762 453.199 227.644 457.902C211.778 465.195 195.298 467.652 178.208 465.276C161.049 462.85 144.304 455.702 127.977 443.833C111.649 431.963 99.7141 418.262 92.1743 402.733C84.5661 387.154 81.8092 370.711 83.907 353.411C85.2479 341.945 88.9012 330.494 94.8431 319.048C82.9226 313.226 72.9413 305.999 64.9075 297.355C53.073 284.51 45.6429 269.587 42.62 252.589C39.624 235.511 41.2436 217.369 47.4794 198.164C53.7162 178.959 63.053 163.367 75.4835 151.393C87.9405 139.338 102.715 131.633 119.809 128.283C131.095 126.021 143.078 125.958 155.76 128.06C157.621 115.002 161.4 103.34 167.104 93.0781C175.655 77.8481 187.543 66.17 202.764 58.0411C218.072 49.9121 235.82 45.8479 256.002 45.8478ZM256.004 87.8853C239.859 87.8854 225.66 91.1355 213.414 97.6384C201.238 104.141 191.729 113.484 184.888 125.667C180.325 133.876 177.302 143.206 175.813 153.652C165.667 151.971 156.081 152.022 147.053 153.831C133.379 156.511 121.558 162.675 111.593 172.319C101.649 181.897 94.1785 194.371 89.1893 209.735C84.2009 225.098 82.9066 239.611 85.3033 253.273C87.7215 266.871 93.6641 278.81 103.131 289.086C109.558 296.001 117.544 301.78 127.08 306.437C122.327 315.594 119.405 324.755 118.333 333.927C116.654 347.768 118.86 360.921 124.946 373.384C130.978 385.806 140.525 396.767 153.587 406.262C166.648 415.757 180.042 421.476 193.769 423.418C207.441 425.319 220.626 423.352 233.319 417.518C241.413 413.756 248.97 408.351 256.004 401.319C261.65 406.964 267.63 411.56 273.956 415.099C275.511 415.969 277.085 416.776 278.682 417.518C291.374 423.352 304.56 425.319 318.232 423.418C331.959 421.477 345.356 415.758 358.418 406.262C371.479 396.767 381.023 385.806 387.054 373.384C393.141 360.921 395.348 347.768 393.67 333.927C392.597 324.754 389.68 315.591 384.926 306.434C394.461 301.776 402.447 296 408.873 289.086C418.34 278.81 424.283 266.871 426.701 253.273C429.098 239.611 427.8 225.098 422.811 209.735C417.822 194.371 410.355 181.897 400.411 172.319C390.446 162.675 378.627 156.511 364.953 153.831C355.924 152.022 346.335 151.97 336.187 153.652C334.699 143.206 331.676 133.876 327.112 125.667C320.271 113.484 310.763 104.141 298.586 97.6384C286.341 91.1356 272.149 87.8854 256.004 87.8853Z" fill="#3A8478" style="fill:#3A8478;fill:color(display-p3 0.2275 0.5176 0.4706);fill-opacity:1;"/>
<path fill-rule="evenodd" clip-rule="evenodd" d="M255.991 87.8749C272.136 87.8749 286.327 91.127 298.573 97.6299C310.75 104.133 320.26 113.475 327.101 125.659C331.664 133.868 334.687 143.196 336.176 153.642C346.323 151.96 355.913 152.011 364.942 153.821C378.616 156.501 390.435 162.665 400.4 172.308C410.344 181.887 417.809 194.361 422.798 209.724C427.787 225.088 429.087 239.602 426.69 253.265C424.272 266.862 418.329 278.8 408.862 289.075C402.436 295.99 394.448 301.766 384.913 306.423C389.667 315.58 392.584 324.744 393.657 333.917C395.335 347.758 393.13 360.912 387.043 373.375C381.012 385.798 371.468 396.758 358.407 406.254C345.344 415.749 331.946 421.466 318.219 423.408C304.547 425.308 291.363 423.342 278.671 417.508C277.074 416.766 275.498 415.961 273.943 415.091C267.617 411.551 261.637 406.954 255.991 401.309C248.957 408.341 241.4 413.746 233.305 417.508C220.613 423.342 207.43 425.308 193.758 423.408C180.031 421.466 166.637 415.749 153.575 406.254C140.514 396.758 130.967 385.798 124.935 373.375C118.848 360.912 116.641 347.757 118.319 333.917C119.392 324.745 122.315 315.585 127.069 306.429C117.533 301.771 109.547 295.991 103.12 289.075C93.6531 278.8 87.7103 266.862 85.2921 253.265C82.8952 239.603 84.1895 225.088 89.1781 209.724C94.1673 194.36 101.638 181.887 111.582 172.308C121.547 162.665 133.366 156.501 147.04 153.821C156.068 152.011 165.654 151.96 175.8 153.642C177.289 143.196 180.312 133.868 184.875 125.659C191.716 113.475 201.227 104.133 213.403 97.6299C225.649 91.127 239.846 87.875 255.991 87.8749ZM255.987 121.489C243.07 121.489 231.711 124.091 221.914 129.293C212.173 134.496 204.564 141.969 199.091 151.716C195.441 158.284 193.021 165.749 191.83 174.106C183.713 172.761 176.044 172.8 168.82 174.247C157.881 176.391 148.425 181.324 140.453 189.039C132.497 196.702 126.521 206.682 122.529 218.975C118.538 231.266 117.501 242.877 119.419 253.808C121.353 264.686 126.108 274.237 133.682 282.458C138.824 287.99 145.213 292.614 152.842 296.341C149.039 303.666 146.702 310.996 145.843 318.335C144.501 329.407 146.266 339.93 151.135 349.901C155.961 359.84 163.599 368.609 174.049 376.206C184.499 383.802 195.215 388.377 206.197 389.931C217.135 391.451 227.683 389.878 237.837 385.21C244.313 382.2 250.36 377.877 255.987 372.251C260.504 376.767 265.289 380.443 270.35 383.275C271.594 383.971 272.854 384.616 274.131 385.21C284.286 389.878 294.834 391.451 305.772 389.931C316.754 388.378 327.473 383.803 337.923 376.206C348.373 368.609 356.008 359.839 360.833 349.901C365.703 339.93 367.468 329.408 366.125 318.335C365.267 310.996 362.934 303.663 359.13 296.337C366.759 292.611 373.149 287.99 378.29 282.458C385.864 274.237 390.619 264.686 392.554 253.808C394.472 242.877 393.431 231.266 389.439 218.975C385.448 206.683 379.476 196.702 371.52 189.039C363.547 181.324 354.092 176.391 343.152 174.247C335.928 172.799 328.257 172.761 320.139 174.106C318.948 165.749 316.528 158.284 312.877 151.716C307.404 141.969 299.796 134.496 290.055 129.293C280.257 124.091 268.904 121.489 255.987 121.489Z" fill="#52A395" style="fill:#52A395;fill:color(display-p3 0.3216 0.6392 0.5843);fill-opacity:1;"/>
<path fill-rule="evenodd" clip-rule="evenodd" d="M255.999 121.498C268.916 121.498 280.269 124.1 290.066 129.303C299.809 134.505 307.416 141.98 312.889 151.727C316.54 158.295 318.96 165.759 320.151 174.116C328.269 172.77 335.94 172.811 343.164 174.259C354.103 176.403 363.559 181.334 371.532 189.048C379.487 196.712 385.462 206.692 389.453 218.984C393.444 231.275 394.483 242.887 392.566 253.817C390.631 264.696 385.876 274.246 378.302 282.467C373.161 287.999 366.771 292.622 359.142 296.348C362.946 303.674 365.279 311.005 366.137 318.344C367.48 329.417 365.715 339.939 360.845 349.91C356.02 359.849 348.385 368.619 337.935 376.215C327.485 383.812 316.766 388.387 305.784 389.94C294.846 391.461 284.298 389.887 274.143 385.22C272.866 384.626 271.606 383.982 270.362 383.286C265.301 380.454 260.516 376.777 255.999 372.261C250.372 377.887 244.325 382.21 237.849 385.22C227.694 389.887 217.147 391.461 206.209 389.94C195.227 388.387 184.511 383.812 174.061 376.215C163.611 368.618 155.973 359.849 151.147 349.91C146.278 339.94 144.513 329.417 145.855 318.344C146.714 311.006 149.051 303.677 152.854 296.352C145.225 292.626 138.836 288 133.694 282.467C126.12 274.246 121.365 264.696 119.43 253.817C117.513 242.887 118.55 231.275 122.541 218.984C126.533 206.692 132.509 196.712 140.464 189.048C148.437 181.334 157.893 176.403 168.832 174.259C176.056 172.811 183.725 172.77 191.842 174.116C193.033 165.759 195.453 158.295 199.103 151.727C204.576 141.98 212.184 134.505 221.926 129.303C231.723 124.1 243.082 121.498 255.999 121.498ZM255.999 148.382C245.664 148.382 236.577 150.464 228.738 154.627C220.943 158.789 214.855 164.77 210.476 172.569C207.555 177.824 205.619 183.796 204.666 190.483C198.171 189.406 192.036 189.439 186.257 190.597C177.503 192.313 169.937 196.259 163.558 202.432C157.192 208.564 152.411 216.548 149.217 226.383C146.024 236.217 145.195 245.508 146.73 254.253C148.278 262.958 152.082 270.6 158.142 277.177C162.256 281.604 167.367 285.305 173.471 288.287C170.428 294.147 168.557 300.011 167.87 305.882C166.796 314.742 168.209 323.162 172.105 331.139C175.966 339.092 182.078 346.108 190.44 352.187C198.801 358.265 207.375 361.926 216.162 363.169C224.914 364.385 233.353 363.126 241.478 359.391C246.659 356.983 251.497 353.524 255.999 349.023C259.613 352.636 263.442 355.577 267.491 357.842C268.486 358.399 269.494 358.916 270.516 359.391C278.641 363.125 287.081 364.385 295.833 363.169C304.62 361.926 313.197 358.265 321.558 352.187C329.919 346.108 336.028 339.091 339.889 331.139C343.786 323.161 345.198 314.742 344.124 305.882C343.437 300.01 341.569 294.145 338.525 288.283C344.629 285.301 349.742 281.604 353.856 277.177C359.916 270.6 363.721 262.958 365.268 254.253C366.803 245.508 365.97 236.217 362.777 226.383C359.583 216.548 354.805 208.564 348.44 202.432C342.062 196.259 334.495 192.313 325.742 190.597C319.962 189.439 313.824 189.406 307.329 190.483C306.376 183.796 304.44 177.824 301.519 172.569C297.139 164.77 291.051 158.789 283.256 154.627C275.418 150.464 266.334 148.382 255.999 148.382Z" fill="#81B983" style="fill:#81B983;fill:color(display-p3 0.5059 0.7255 0.5137);fill-opacity:1;"/>
</svg>
